<svg width="21" height="21" viewBox="0 0 21 21" fill="none" xmlns="http://www.w3.org/2000/svg">
<g id="arrow-narrow-right">
<path id="Vector" fill-rule="evenodd" clip-rule="evenodd" d="M12.751 5.73934C12.9385 5.55186 13.1928 5.44655 13.458 5.44655C13.7232 5.44655 13.9775 5.55186 14.165 5.73934L18.165 9.73934C18.3525 9.92686 18.4578 10.1812 18.4578 10.4463C18.4578 10.7115 18.3525 10.9658 18.165 11.1533L14.165 15.1533C13.9764 15.3355 13.7238 15.4363 13.4616 15.434C13.1994 15.4317 12.9486 15.3266 12.7632 15.1412C12.5778 14.9557 12.4726 14.7049 12.4703 14.4427C12.4681 14.1805 12.5688 13.9279 12.751 13.7393L15.044 11.4463H3.45801C3.19279 11.4463 2.93844 11.341 2.7509 11.1534C2.56336 10.9659 2.45801 10.7116 2.45801 10.4463C2.45801 10.1811 2.56336 9.92676 2.7509 9.73923C2.93844 9.55169 3.19279 9.44633 3.45801 9.44633H15.044L12.751 7.15333C12.5635 6.96581 12.4582 6.7115 12.4582 6.44633C12.4582 6.18117 12.5635 5.92686 12.751 5.73934Z" fill="white"/>
</g>
</svg>
